# Wavefront .OBJ file for tesselated shape: beam_011025-1 path: C:\Users\Jiaqi\OneDrive - Northwestern University\Desktop\Computation\Robot_System\SLDWK_assemble\beam_011025.SLDPRT

g body_1
v 0.016950 0.088900 -0.056083
v 0.020000 0.088900 -0.056900
v 0.020000 0.101600 -0.056900
v 0.014717 0.088900 -0.053850
v 0.016950 0.101600 -0.056083
v 0.013900 0.088900 -0.050800
v 0.014717 0.101600 -0.053850
v 0.014717 0.088900 -0.047750
v 0.013900 0.101600 -0.050800
v 0.016950 0.088900 -0.045517
v 0.014717 0.101600 -0.047750
v 0.020000 0.088900 -0.044700
v 0.016950 0.101600 -0.045517
v 0.023050 0.088900 -0.045517
v 0.020000 0.101600 -0.044700
v 0.025283 0.088900 -0.047750
v 0.023050 0.101600 -0.045517
v 0.026100 0.088900 -0.050800
v 0.025283 0.101600 -0.047750
v 0.025283 0.088900 -0.053850
v 0.026100 0.101600 -0.050800
v 0.023050 0.088900 -0.056083
v 0.025283 0.101600 -0.053850
v 0.023050 0.101600 -0.056083
v 0.174717 0.088900 -0.047750
v 0.000000 0.088900 -0.012700
v 0.020000 0.088900 -0.044700
v 0.016950 0.088900 -0.045517
v 0.000000 0.088900 -0.088900
v 0.014717 0.088900 -0.053850
v 0.013900 0.088900 -0.050800
v 0.025283 0.088900 -0.053850
v 0.174717 0.088900 -0.053850
v 0.173900 0.088900 -0.050800
v 0.800000 0.088900 -0.012700
v 0.180000 0.088900 -0.044700
v 0.014717 0.088900 -0.047750
v 0.016950 0.088900 -0.056083
v 0.176950 0.088900 -0.056083
v 0.800000 0.088900 -0.088900
v 0.185283 0.088900 -0.053850
v 0.183050 0.088900 -0.056083
v 0.186100 0.088900 -0.050800
v 0.183050 0.088900 -0.045517
v 0.020000 0.088900 -0.056900
v 0.023050 0.088900 -0.056083
v 0.026100 0.088900 -0.050800
v 0.023050 0.088900 -0.045517
v 0.180000 0.088900 -0.056900
v 0.185283 0.088900 -0.047750
v 0.176950 0.088900 -0.045517
v 0.025283 0.088900 -0.047750
v 0.176950 0.088900 -0.056083
v 0.180000 0.088900 -0.056900
v 0.180000 0.101600 -0.056900
v 0.174717 0.088900 -0.053850
v 0.176950 0.101600 -0.056083
v 0.173900 0.088900 -0.050800
v 0.174717 0.101600 -0.053850
v 0.174717 0.088900 -0.047750
v 0.173900 0.101600 -0.050800
v 0.176950 0.088900 -0.045517
v 0.174717 0.101600 -0.047750
v 0.180000 0.088900 -0.044700
v 0.176950 0.101600 -0.045517
v 0.183050 0.088900 -0.045517
v 0.180000 0.101600 -0.044700
v 0.185283 0.088900 -0.047750
v 0.183050 0.101600 -0.045517
v 0.186100 0.088900 -0.050800
v 0.185283 0.101600 -0.047750
v 0.185283 0.088900 -0.053850
v 0.186100 0.101600 -0.050800
v 0.183050 0.088900 -0.056083
v 0.185283 0.101600 -0.053850
v 0.183050 0.101600 -0.056083
v 0.800000 0.012700 -0.012700
v 0.000000 0.012700 -0.012700
v 0.000000 0.088900 -0.012700
v 0.800000 0.088900 -0.012700
v 0.800000 0.088900 -0.088900
v 0.000000 0.088900 -0.088900
v 0.000000 0.012700 -0.088900
v 0.800000 0.012700 -0.088900
v 0.800000 0.012700 -0.012700
v 0.800000 0.088900 -0.012700
v 0.800000 0.088900 -0.088900
v 0.800000 0.012700 -0.088900
v 0.174717 0.012700 -0.053850
v 0.000000 0.012700 -0.088900
v 0.020000 0.012700 -0.056900
v 0.016950 0.012700 -0.056083
v 0.000000 0.012700 -0.012700
v 0.013900 0.012700 -0.050800
v 0.025283 0.012700 -0.047750
v 0.174717 0.012700 -0.047750
v 0.173900 0.012700 -0.050800
v 0.800000 0.012700 -0.088900
v 0.180000 0.012700 -0.056900
v 0.014717 0.012700 -0.053850
v 0.016950 0.012700 -0.045517
v 0.014717 0.012700 -0.047750
v 0.176950 0.012700 -0.045517
v 0.800000 0.012700 -0.012700
v 0.185283 0.012700 -0.047750
v 0.183050 0.012700 -0.045517
v 0.186100 0.012700 -0.050800
v 0.183050 0.012700 -0.056083
v 0.020000 0.012700 -0.044700
v 0.023050 0.012700 -0.045517
v 0.026100 0.012700 -0.050800
v 0.023050 0.012700 -0.056083
v 0.180000 0.012700 -0.044700
v 0.185283 0.012700 -0.053850
v 0.176950 0.012700 -0.056083
v 0.025283 0.012700 -0.053850
v 0.016950 0.000000 -0.056083
v 0.020000 0.000000 -0.056900
v 0.020000 0.012700 -0.056900
v 0.014717 0.000000 -0.053850
v 0.016950 0.012700 -0.056083
v 0.013900 0.000000 -0.050800
v 0.014717 0.012700 -0.053850
v 0.014717 0.000000 -0.047750
v 0.013900 0.012700 -0.050800
v 0.016950 0.000000 -0.045517
v 0.014717 0.012700 -0.047750
v 0.020000 0.000000 -0.044700
v 0.016950 0.012700 -0.045517
v 0.023050 0.000000 -0.045517
v 0.020000 0.012700 -0.044700
v 0.025283 0.000000 -0.047750
v 0.023050 0.012700 -0.045517
v 0.026100 0.000000 -0.050800
v 0.025283 0.012700 -0.047750
v 0.025283 0.000000 -0.053850
v 0.026100 0.012700 -0.050800
v 0.023050 0.000000 -0.056083
v 0.025283 0.012700 -0.053850
v 0.023050 0.012700 -0.056083
v 0.176950 0.000000 -0.056083
v 0.180000 0.000000 -0.056900
v 0.180000 0.012700 -0.056900
v 0.174717 0.000000 -0.053850
v 0.176950 0.012700 -0.056083
v 0.173900 0.000000 -0.050800
v 0.174717 0.012700 -0.053850
v 0.174717 0.000000 -0.047750
v 0.173900 0.012700 -0.050800
v 0.176950 0.000000 -0.045517
v 0.174717 0.012700 -0.047750
v 0.180000 0.000000 -0.044700
v 0.176950 0.012700 -0.045517
v 0.183050 0.000000 -0.045517
v 0.180000 0.012700 -0.044700
v 0.185283 0.000000 -0.047750
v 0.183050 0.012700 -0.045517
v 0.186100 0.000000 -0.050800
v 0.185283 0.012700 -0.047750
v 0.185283 0.000000 -0.053850
v 0.186100 0.012700 -0.050800
v 0.183050 0.000000 -0.056083
v 0.185283 0.012700 -0.053850
v 0.183050 0.012700 -0.056083
v 0.000000 0.101600 0.000000
v 0.000000 0.101600 -0.101600
v 0.000000 0.088900 -0.088900
v 0.000000 0.000000 -0.101600
v 0.000000 0.012700 -0.088900
v 0.000000 0.000000 0.000000
v 0.000000 0.012700 -0.012700
v 0.000000 0.088900 -0.012700
v 0.000000 0.101600 -0.101600
v 0.880000 0.101600 -0.101600
v 0.880000 0.000000 -0.101600
v 0.000000 0.000000 -0.101600
v 0.000000 0.000000 0.000000
v 0.880000 0.000000 0.000000
v 0.880000 0.101600 0.000000
v 0.000000 0.101600 0.000000
v 0.880000 0.101600 -0.101600
v 0.945000 0.101600 -0.095800
v 0.945000 0.000000 -0.095800
v 0.880000 0.000000 -0.101600
v 0.945000 0.000000 -0.095800
v 0.945000 0.101600 -0.095800
v 0.958906 0.101600 -0.093598
v 0.958906 0.000000 -0.093598
v 0.971450 0.101600 -0.087206
v 0.971450 0.000000 -0.087206
v 0.981406 0.101600 -0.077250
v 0.981406 0.000000 -0.077250
v 0.987798 0.101600 -0.064706
v 0.987798 0.000000 -0.064706
v 0.990000 0.101600 -0.050800
v 0.990000 0.000000 -0.050800
v 0.987798 0.101600 -0.036894
v 0.987798 0.000000 -0.036894
v 0.981406 0.101600 -0.024350
v 0.981406 0.000000 -0.024350
v 0.971450 0.101600 -0.014394
v 0.971450 0.000000 -0.014394
v 0.958906 0.101600 -0.008002
v 0.958906 0.000000 -0.008002
v 0.945000 0.101600 -0.005800
v 0.945000 0.000000 -0.005800
v 0.945000 0.000000 -0.005800
v 0.945000 0.101600 -0.005800
v 0.880000 0.101600 0.000000
v 0.880000 0.000000 0.000000
v 0.945000 0.000000 -0.005800
v 0.945000 0.000000 -0.015800
v 0.951431 0.000000 -0.016396
v 0.938569 0.000000 -0.016396
v 0.880000 0.000000 0.000000
v 0.926575 0.000000 -0.021042
v 0.981406 0.000000 -0.077250
v 0.976331 0.000000 -0.066401
v 0.968579 0.000000 -0.076665
v 0.958906 0.000000 -0.008002
v 0.963425 0.000000 -0.021042
v 0.186100 0.000000 -0.050800
v 0.911336 0.000000 -0.041222
v 0.880000 0.000000 -0.101600
v 0.183050 0.000000 -0.056083
v 0.180000 0.000000 -0.056900
v 0.971450 0.000000 -0.087206
v 0.987798 0.000000 -0.064706
v 0.990000 0.000000 -0.050800
v 0.979851 0.000000 -0.054029
v 0.971450 0.000000 -0.014394
v 0.972931 0.000000 -0.029708
v 0.917069 0.000000 -0.029708
v 0.185283 0.000000 -0.053850
v 0.025283 0.000000 -0.053850
v 0.910149 0.000000 -0.054029
v 0.958906 0.000000 -0.093598
v 0.957643 0.000000 -0.083437
v 0.945000 0.000000 -0.085800
v 0.987798 0.000000 -0.036894
v 0.978664 0.000000 -0.041222
v 0.185283 0.000000 -0.047750
v 0.174717 0.000000 -0.047750
v 0.000000 0.000000 0.000000
v 0.020000 0.000000 -0.044700
v 0.023050 0.000000 -0.056083
v 0.026100 0.000000 -0.050800
v 0.921421 0.000000 -0.076665
v 0.913669 0.000000 -0.066401
v 0.945000 0.000000 -0.095800
v 0.932357 0.000000 -0.083437
v 0.981406 0.000000 -0.024350
v 0.016950 0.000000 -0.045517
v 0.000000 0.000000 -0.101600
v 0.014717 0.000000 -0.053850
v 0.013900 0.000000 -0.050800
v 0.023050 0.000000 -0.045517
v 0.180000 0.000000 -0.044700
v 0.173900 0.000000 -0.050800
v 0.014717 0.000000 -0.047750
v 0.016950 0.000000 -0.056083
v 0.025283 0.000000 -0.047750
v 0.183050 0.000000 -0.045517
v 0.020000 0.000000 -0.056900
v 0.176950 0.000000 -0.045517
v 0.176950 0.000000 -0.056083
v 0.174717 0.000000 -0.053850
v 0.981406 0.101600 -0.077250
v 0.971450 0.101600 -0.087206
v 0.968579 0.101600 -0.076665
v 0.987798 0.101600 -0.064706
v 0.976331 0.101600 -0.066401
v 0.979851 0.101600 -0.054029
v 0.958906 0.101600 -0.093598
v 0.957643 0.101600 -0.083437
v 0.945000 0.101600 -0.095800
v 0.945000 0.101600 -0.085800
v 0.880000 0.101600 -0.101600
v 0.932357 0.101600 -0.083437
v 0.880000 0.101600 0.000000
v 0.183050 0.101600 -0.045517
v 0.180000 0.101600 -0.044700
v 0.945000 0.101600 -0.005800
v 0.958906 0.101600 -0.008002
v 0.951431 0.101600 -0.016396
v 0.971450 0.101600 -0.014394
v 0.963425 0.101600 -0.021042
v 0.990000 0.101600 -0.050800
v 0.978664 0.101600 -0.041222
v 0.921421 0.101600 -0.076665
v 0.186100 0.101600 -0.050800
v 0.910149 0.101600 -0.054029
v 0.185283 0.101600 -0.047750
v 0.025283 0.101600 -0.047750
v 0.911336 0.101600 -0.041222
v 0.938569 0.101600 -0.016396
v 0.981406 0.101600 -0.024350
v 0.972931 0.101600 -0.029708
v 0.913669 0.101600 -0.066401
v 0.174717 0.101600 -0.053850
v 0.000000 0.101600 -0.101600
v 0.020000 0.101600 -0.056900
v 0.023050 0.101600 -0.045517
v 0.026100 0.101600 -0.050800
v 0.926575 0.101600 -0.021042
v 0.917069 0.101600 -0.029708
v 0.945000 0.101600 -0.015800
v 0.987798 0.101600 -0.036894
v 0.185283 0.101600 -0.053850
v 0.016950 0.101600 -0.056083
v 0.000000 0.101600 0.000000
v 0.013900 0.101600 -0.050800
v 0.023050 0.101600 -0.056083
v 0.180000 0.101600 -0.056900
v 0.173900 0.101600 -0.050800
v 0.014717 0.101600 -0.053850
v 0.016950 0.101600 -0.045517
v 0.014717 0.101600 -0.047750
v 0.025283 0.101600 -0.053850
v 0.183050 0.101600 -0.056083
v 0.020000 0.101600 -0.044700
v 0.176950 0.101600 -0.056083
v 0.176950 0.101600 -0.045517
v 0.174717 0.101600 -0.047750
v 0.932357 0.000000 -0.083437
v 0.945000 0.000000 -0.085800
v 0.945000 0.101600 -0.085800
v 0.921421 0.000000 -0.076665
v 0.932357 0.101600 -0.083437
v 0.913669 0.000000 -0.066401
v 0.921421 0.101600 -0.076665
v 0.910149 0.000000 -0.054029
v 0.913669 0.101600 -0.066401
v 0.911336 0.000000 -0.041222
v 0.910149 0.101600 -0.054029
v 0.917069 0.000000 -0.029708
v 0.911336 0.101600 -0.041222
v 0.926575 0.000000 -0.021042
v 0.917069 0.101600 -0.029708
v 0.938569 0.000000 -0.016396
v 0.926575 0.101600 -0.021042
v 0.951431 0.000000 -0.016396
v 0.945000 0.000000 -0.015800
v 0.945000 0.101600 -0.015800
v 0.938569 0.101600 -0.016396
v 0.963425 0.000000 -0.021042
v 0.951431 0.101600 -0.016396
v 0.972931 0.000000 -0.029708
v 0.963425 0.101600 -0.021042
v 0.978664 0.000000 -0.041222
v 0.972931 0.101600 -0.029708
v 0.979851 0.000000 -0.054029
v 0.978664 0.101600 -0.041222
v 0.976331 0.000000 -0.066401
v 0.979851 0.101600 -0.054029
v 0.968579 0.000000 -0.076665
v 0.976331 0.101600 -0.066401
v 0.957643 0.000000 -0.083437
v 0.968579 0.101600 -0.076665
v 0.957643 0.101600 -0.083437
vn 0.500 0.000 0.866
vn 0.000 0.000 1.000
vn 0.000 0.000 1.000
vn 0.866 0.000 0.500
vn 0.500 0.000 0.866
vn 1.000 0.000 0.000
vn 0.866 0.000 0.500
vn 0.866 0.000 -0.500
vn 1.000 0.000 0.000
vn 0.500 0.000 -0.866
vn 0.866 0.000 -0.500
vn 0.000 0.000 -1.000
vn 0.500 0.000 -0.866
vn -0.500 0.000 -0.866
vn 0.000 0.000 -1.000
vn -0.866 0.000 -0.500
vn -0.500 0.000 -0.866
vn -1.000 0.000 0.000
vn -0.866 0.000 -0.500
vn -0.866 0.000 0.500
vn -1.000 0.000 0.000
vn -0.500 0.000 0.866
vn -0.866 0.000 0.500
vn -0.500 0.000 0.866
vn 0.000 -1.000 0.000
vn 0.000 -1.000 0.000
vn 0.000 -1.000 0.000
vn 0.000 -1.000 0.000
vn 0.000 -1.000 0.000
vn 0.000 -1.000 0.000
vn 0.000 -1.000 0.000
vn 0.000 -1.000 0.000
vn 0.000 -1.000 0.000
vn 0.000 -1.000 0.000
vn 0.000 -1.000 0.000
vn 0.000 -1.000 0.000
vn 0.000 -1.000 0.000
vn 0.000 -1.000 0.000
vn 0.000 -1.000 0.000
vn 0.000 -1.000 0.000
vn 0.000 -1.000 0.000
vn 0.000 -1.000 0.000
vn 0.000 -1.000 0.000
vn 0.000 -1.000 0.000
vn 0.000 -1.000 0.000
vn 0.000 -1.000 0.000
vn 0.000 -1.000 0.000
vn 0.000 -1.000 0.000
vn 0.000 -1.000 0.000
vn 0.000 -1.000 0.000
vn 0.000 -1.000 0.000
vn 0.000 -1.000 0.000
vn 0.500 0.000 0.866
vn 0.000 0.000 1.000
vn 0.000 0.000 1.000
vn 0.866 0.000 0.500
vn 0.500 0.000 0.866
vn 1.000 0.000 0.000
vn 0.866 0.000 0.500
vn 0.866 0.000 -0.500
vn 1.000 0.000 0.000
vn 0.500 0.000 -0.866
vn 0.866 0.000 -0.500
vn 0.000 0.000 -1.000
vn 0.500 0.000 -0.866
vn -0.500 0.000 -0.866
vn 0.000 0.000 -1.000
vn -0.866 0.000 -0.500
vn -0.500 0.000 -0.866
vn -1.000 0.000 0.000
vn -0.866 0.000 -0.500
vn -0.866 0.000 0.500
vn -1.000 0.000 0.000
vn -0.500 0.000 0.866
vn -0.866 0.000 0.500
vn -0.500 0.000 0.866
vn 0.000 0.000 -1.000
vn 0.000 0.000 -1.000
vn 0.000 0.000 -1.000
vn 0.000 0.000 -1.000
vn 0.000 0.000 1.000
vn 0.000 0.000 1.000
vn 0.000 0.000 1.000
vn 0.000 0.000 1.000
vn -1.000 0.000 0.000
vn -1.000 0.000 0.000
vn -1.000 0.000 0.000
vn -1.000 0.000 0.000
vn 0.000 1.000 0.000
vn 0.000 1.000 0.000
vn 0.000 1.000 0.000
vn 0.000 1.000 0.000
vn 0.000 1.000 0.000
vn 0.000 1.000 0.000
vn 0.000 1.000 0.000
vn 0.000 1.000 0.000
vn 0.000 1.000 0.000
vn 0.000 1.000 0.000
vn 0.000 1.000 0.000
vn 0.000 1.000 0.000
vn 0.000 1.000 0.000
vn 0.000 1.000 0.000
vn 0.000 1.000 0.000
vn 0.000 1.000 0.000
vn 0.000 1.000 0.000
vn 0.000 1.000 0.000
vn 0.000 1.000 0.000
vn 0.000 1.000 0.000
vn 0.000 1.000 0.000
vn 0.000 1.000 0.000
vn 0.000 1.000 0.000
vn 0.000 1.000 0.000
vn 0.000 1.000 0.000
vn 0.000 1.000 0.000
vn 0.000 1.000 0.000
vn 0.000 1.000 0.000
vn 0.500 0.000 0.866
vn 0.000 0.000 1.000
vn 0.000 0.000 1.000
vn 0.866 0.000 0.500
vn 0.500 0.000 0.866
vn 1.000 0.000 0.000
vn 0.866 0.000 0.500
vn 0.866 0.000 -0.500
vn 1.000 0.000 0.000
vn 0.500 0.000 -0.866
vn 0.866 0.000 -0.500
vn 0.000 0.000 -1.000
vn 0.500 0.000 -0.866
vn -0.500 0.000 -0.866
vn 0.000 0.000 -1.000
vn -0.866 0.000 -0.500
vn -0.500 0.000 -0.866
vn -1.000 0.000 0.000
vn -0.866 0.000 -0.500
vn -0.866 0.000 0.500
vn -1.000 0.000 0.000
vn -0.500 0.000 0.866
vn -0.866 0.000 0.500
vn -0.500 0.000 0.866
vn 0.500 0.000 0.866
vn 0.000 0.000 1.000
vn 0.000 0.000 1.000
vn 0.866 0.000 0.500
vn 0.500 0.000 0.866
vn 1.000 0.000 0.000
vn 0.866 0.000 0.500
vn 0.866 0.000 -0.500
vn 1.000 0.000 0.000
vn 0.500 0.000 -0.866
vn 0.866 0.000 -0.500
vn 0.000 0.000 -1.000
vn 0.500 0.000 -0.866
vn -0.500 0.000 -0.866
vn 0.000 0.000 -1.000
vn -0.866 0.000 -0.500
vn -0.500 0.000 -0.866
vn -1.000 0.000 0.000
vn -0.866 0.000 -0.500
vn -0.866 0.000 0.500
vn -1.000 0.000 0.000
vn -0.500 0.000 0.866
vn -0.866 0.000 0.500
vn -0.500 0.000 0.866
vn -1.000 0.000 0.000
vn -1.000 0.000 0.000
vn -1.000 0.000 0.000
vn -1.000 0.000 0.000
vn -1.000 0.000 0.000
vn -1.000 0.000 0.000
vn -1.000 0.000 0.000
vn -1.000 0.000 0.000
vn 0.000 0.000 -1.000
vn 0.000 0.000 -1.000
vn 0.000 0.000 -1.000
vn 0.000 0.000 -1.000
vn 0.000 0.000 1.000
vn 0.000 0.000 1.000
vn 0.000 0.000 1.000
vn 0.000 0.000 1.000
vn 0.089 0.000 -0.996
vn 0.089 0.000 -0.996
vn 0.089 0.000 -0.996
vn 0.089 0.000 -0.996
vn 0.000 0.000 -1.000
vn 0.000 0.000 -1.000
vn 0.309 0.000 -0.951
vn 0.309 0.000 -0.951
vn 0.588 0.000 -0.809
vn 0.588 0.000 -0.809
vn 0.809 0.000 -0.588
vn 0.809 0.000 -0.588
vn 0.951 0.000 -0.309
vn 0.951 0.000 -0.309
vn 1.000 0.000 0.000
vn 1.000 0.000 0.000
vn 0.951 0.000 0.309
vn 0.951 0.000 0.309
vn 0.809 0.000 0.588
vn 0.809 0.000 0.588
vn 0.588 0.000 0.809
vn 0.588 0.000 0.809
vn 0.309 0.000 0.951
vn 0.309 0.000 0.951
vn 0.000 0.000 1.000
vn 0.000 0.000 1.000
vn 0.089 0.000 0.996
vn 0.089 0.000 0.996
vn 0.089 0.000 0.996
vn 0.089 0.000 0.996
vn 0.000 -1.000 0.000
vn 0.000 -1.000 0.000
vn 0.000 -1.000 0.000
vn 0.000 -1.000 0.000
vn 0.000 -1.000 0.000
vn 0.000 -1.000 0.000
vn 0.000 -1.000 0.000
vn 0.000 -1.000 0.000
vn 0.000 -1.000 0.000
vn 0.000 -1.000 0.000
vn 0.000 -1.000 0.000
vn 0.000 -1.000 0.000
vn 0.000 -1.000 0.000
vn 0.000 -1.000 0.000
vn 0.000 -1.000 0.000
vn 0.000 -1.000 0.000
vn 0.000 -1.000 0.000
vn 0.000 -1.000 0.000
vn 0.000 -1.000 0.000
vn 0.000 -1.000 0.000
vn 0.000 -1.000 0.000
vn 0.000 -1.000 0.000
vn 0.000 -1.000 0.000
vn 0.000 -1.000 0.000
vn 0.000 -1.000 0.000
vn 0.000 -1.000 0.000
vn 0.000 -1.000 0.000
vn 0.000 -1.000 0.000
vn 0.000 -1.000 0.000
vn 0.000 -1.000 0.000
vn 0.000 -1.000 0.000
vn 0.000 -1.000 0.000
vn 0.000 -1.000 0.000
vn 0.000 -1.000 0.000
vn 0.000 -1.000 0.000
vn 0.000 -1.000 0.000
vn 0.000 -1.000 0.000
vn 0.000 -1.000 0.000
vn 0.000 -1.000 0.000
vn 0.000 -1.000 0.000
vn 0.000 -1.000 0.000
vn 0.000 -1.000 0.000
vn 0.000 -1.000 0.000
vn 0.000 -1.000 0.000
vn 0.000 -1.000 0.000
vn 0.000 -1.000 0.000
vn 0.000 -1.000 0.000
vn 0.000 -1.000 0.000
vn 0.000 -1.000 0.000
vn 0.000 -1.000 0.000
vn 0.000 -1.000 0.000
vn 0.000 -1.000 0.000
vn 0.000 -1.000 0.000
vn 0.000 -1.000 0.000
vn 0.000 -1.000 0.000
vn 0.000 -1.000 0.000
vn 0.000 -1.000 0.000
vn 0.000 1.000 0.000
vn 0.000 1.000 0.000
vn 0.000 1.000 0.000
vn 0.000 1.000 0.000
vn 0.000 1.000 0.000
vn 0.000 1.000 0.000
vn 0.000 1.000 0.000
vn 0.000 1.000 0.000
vn 0.000 1.000 0.000
vn 0.000 1.000 0.000
vn 0.000 1.000 0.000
vn 0.000 1.000 0.000
vn 0.000 1.000 0.000
vn 0.000 1.000 0.000
vn 0.000 1.000 0.000
vn 0.000 1.000 0.000
vn 0.000 1.000 0.000
vn 0.000 1.000 0.000
vn 0.000 1.000 0.000
vn 0.000 1.000 0.000
vn 0.000 1.000 0.000
vn 0.000 1.000 0.000
vn 0.000 1.000 0.000
vn 0.000 1.000 0.000
vn 0.000 1.000 0.000
vn 0.000 1.000 0.000
vn 0.000 1.000 0.000
vn 0.000 1.000 0.000
vn 0.000 1.000 0.000
vn 0.000 1.000 0.000
vn 0.000 1.000 0.000
vn 0.000 1.000 0.000
vn 0.000 1.000 0.000
vn 0.000 1.000 0.000
vn 0.000 1.000 0.000
vn 0.000 1.000 0.000
vn 0.000 1.000 0.000
vn 0.000 1.000 0.000
vn 0.000 1.000 0.000
vn 0.000 1.000 0.000
vn 0.000 1.000 0.000
vn 0.000 1.000 0.000
vn 0.000 1.000 0.000
vn 0.000 1.000 0.000
vn 0.000 1.000 0.000
vn 0.000 1.000 0.000
vn 0.000 1.000 0.000
vn 0.000 1.000 0.000
vn 0.000 1.000 0.000
vn 0.000 1.000 0.000
vn 0.000 1.000 0.000
vn 0.000 1.000 0.000
vn 0.000 1.000 0.000
vn 0.000 1.000 0.000
vn 0.000 1.000 0.000
vn 0.000 1.000 0.000
vn 0.000 1.000 0.000
vn 0.361 0.000 0.932
vn 0.000 0.000 1.000
vn 0.000 0.000 1.000
vn 0.674 0.000 0.739
vn 0.361 0.000 0.932
vn 0.895 0.000 0.446
vn 0.674 0.000 0.739
vn 0.996 0.000 0.092
vn 0.895 0.000 0.446
vn 0.962 0.000 -0.274
vn 0.996 0.000 0.092
vn 0.798 0.000 -0.603
vn 0.962 0.000 -0.274
vn 0.526 0.000 -0.850
vn 0.798 0.000 -0.603
vn 0.184 0.000 -0.983
vn 0.526 0.000 -0.850
vn -0.184 0.000 -0.983
vn 0.000 0.000 -1.000
vn 0.000 0.000 -1.000
vn 0.184 0.000 -0.983
vn -0.526 0.000 -0.850
vn -0.184 0.000 -0.983
vn -0.798 0.000 -0.603
vn -0.526 0.000 -0.850
vn -0.962 0.000 -0.274
vn -0.798 0.000 -0.603
vn -0.996 0.000 0.092
vn -0.962 0.000 -0.274
vn -0.895 0.000 0.446
vn -0.996 0.000 0.092
vn -0.674 0.000 0.739
vn -0.895 0.000 0.446
vn -0.361 0.000 0.932
vn -0.674 0.000 0.739
vn -0.361 0.000 0.932
vt -0.5236 0.6111 0
vt 0.0000 0.6111 0
vt 0.0000 0.5984 0
vt -1.0472 0.6111 0
vt -0.5236 0.5984 0
vt 4.7124 0.6111 0
vt -1.0472 0.5984 0
vt 4.1888 0.6111 0
vt 4.7124 0.5984 0
vt 3.6652 0.6111 0
vt 4.1888 0.5984 0
vt 3.1416 0.6111 0
vt 3.6652 0.5984 0
vt 2.6180 0.6111 0
vt 3.1416 0.5984 0
vt 2.0944 0.6111 0
vt 2.6180 0.5984 0
vt 1.5708 0.6111 0
vt 2.0944 0.5984 0
vt 1.0472 0.6111 0
vt 1.5708 0.5984 0
vt 0.5236 0.6111 0
vt 1.0472 0.5984 0
vt 0.5236 0.5984 0
vt 0.0351 -0.6253 0
vt 0.0000 -0.8000 0
vt 0.0320 -0.7800 0
vt 0.0328 -0.7831 0
vt 0.0762 -0.8000 0
vt 0.0412 -0.7853 0
vt 0.0381 -0.7861 0
vt 0.0412 -0.7747 0
vt 0.0412 -0.6253 0
vt 0.0381 -0.6261 0
vt 0.0000 0.0000 0
vt 0.0320 -0.6200 0
vt 0.0351 -0.7853 0
vt 0.0434 -0.7831 0
vt 0.0434 -0.6231 0
vt 0.0762 0.0000 0
vt 0.0412 -0.6147 0
vt 0.0434 -0.6170 0
vt 0.0381 -0.6139 0
vt 0.0328 -0.6170 0
vt 0.0442 -0.7800 0
vt 0.0434 -0.7770 0
vt 0.0381 -0.7739 0
vt 0.0328 -0.7770 0
vt 0.0442 -0.6200 0
vt 0.0351 -0.6147 0
vt 0.0328 -0.6231 0
vt 0.0351 -0.7747 0
vt -0.5236 0.6111 0
vt 0.0000 0.6111 0
vt 0.0000 0.5984 0
vt -1.0472 0.6111 0
vt -0.5236 0.5984 0
vt 4.7124 0.6111 0
vt -1.0472 0.5984 0
vt 4.1888 0.6111 0
vt 4.7124 0.5984 0
vt 3.6652 0.6111 0
vt 4.1888 0.5984 0
vt 3.1416 0.6111 0
vt 3.6652 0.5984 0
vt 2.6180 0.6111 0
vt 3.1416 0.5984 0
vt 2.0944 0.6111 0
vt 2.6180 0.5984 0
vt 1.5708 0.6111 0
vt 2.0944 0.5984 0
vt 1.0472 0.6111 0
vt 1.5708 0.5984 0
vt 0.5236 0.6111 0
vt 1.0472 0.5984 0
vt 0.5236 0.5984 0
vt 0.0000 0.0000 0
vt 0.0000 -0.8000 0
vt 0.0762 -0.8000 0
vt 0.0762 0.0000 0
vt -0.0762 0.0000 0
vt -0.0762 -0.8000 0
vt 0.0000 -0.8000 0
vt 0.0000 0.0000 0
vt -0.0127 0.0127 0
vt -0.0127 0.0889 0
vt -0.0889 0.0889 0
vt -0.0889 0.0127 0
vt -0.0412 -0.6253 0
vt -0.0762 -0.8000 0
vt -0.0442 -0.7800 0
vt -0.0434 -0.7831 0
vt 0.0000 -0.8000 0
vt -0.0381 -0.7861 0
vt -0.0351 -0.7747 0
vt -0.0351 -0.6253 0
vt -0.0381 -0.6261 0
vt -0.0762 0.0000 0
vt -0.0442 -0.6200 0
vt -0.0412 -0.7853 0
vt -0.0328 -0.7831 0
vt -0.0351 -0.7853 0
vt -0.0328 -0.6231 0
vt 0.0000 0.0000 0
vt -0.0351 -0.6147 0
vt -0.0328 -0.6170 0
vt -0.0381 -0.6139 0
vt -0.0434 -0.6170 0
vt -0.0320 -0.7800 0
vt -0.0328 -0.7770 0
vt -0.0381 -0.7739 0
vt -0.0434 -0.7770 0
vt -0.0320 -0.6200 0
vt -0.0412 -0.6147 0
vt -0.0434 -0.6231 0
vt -0.0412 -0.7747 0
vt -0.5236 0.7000 0
vt 0.0000 0.7000 0
vt 0.0000 0.6873 0
vt 5.2360 0.7000 0
vt -0.5236 0.6873 0
vt 4.7124 0.7000 0
vt 5.2360 0.6873 0
vt 4.1888 0.7000 0
vt 4.7124 0.6873 0
vt 3.6652 0.7000 0
vt 4.1888 0.6873 0
vt 3.1416 0.7000 0
vt 3.6652 0.6873 0
vt 2.6180 0.7000 0
vt 3.1416 0.6873 0
vt 2.0944 0.7000 0
vt 2.6180 0.6873 0
vt 1.5708 0.7000 0
vt 2.0944 0.6873 0
vt 1.0472 0.7000 0
vt 1.5708 0.6873 0
vt 0.5236 0.7000 0
vt 1.0472 0.6873 0
vt 0.5236 0.6873 0
vt -0.5236 0.7000 0
vt 0.0000 0.7000 0
vt 0.0000 0.6873 0
vt -1.0472 0.7000 0
vt -0.5236 0.6873 0
vt 4.7124 0.7000 0
vt -1.0472 0.6873 0
vt 4.1888 0.7000 0
vt 4.7124 0.6873 0
vt 3.6652 0.7000 0
vt 4.1888 0.6873 0
vt 3.1416 0.7000 0
vt 3.6652 0.6873 0
vt 2.6180 0.7000 0
vt 3.1416 0.6873 0
vt 2.0944 0.7000 0
vt 2.6180 0.6873 0
vt 1.5708 0.7000 0
vt 2.0944 0.6873 0
vt 1.0472 0.7000 0
vt 1.5708 0.6873 0
vt 0.5236 0.7000 0
vt 1.0472 0.6873 0
vt 0.5236 0.6873 0
vt 0.0000 0.1016 0
vt -0.1016 0.1016 0
vt -0.0889 0.0889 0
vt -0.1016 0.0000 0
vt -0.0889 0.0127 0
vt 0.0000 0.0000 0
vt -0.0127 0.0127 0
vt -0.0127 0.0889 0
vt -0.1016 -0.9900 0
vt -0.1016 -0.1100 0
vt 0.0000 -0.1100 0
vt 0.0000 -0.9900 0
vt 0.0000 -0.9900 0
vt 0.0000 -0.1100 0
vt -0.1016 -0.1100 0
vt -0.1016 -0.9900 0
vt -0.8675 -0.5984 0
vt -0.9327 -0.5984 0
vt -0.9327 -0.7000 0
vt -0.8675 -0.7000 0
vt 0.0000 0.7000 0
vt 0.0000 0.5984 0
vt 0.3142 0.5984 0
vt 0.3142 0.7000 0
vt 0.6283 0.5984 0
vt 0.6283 0.7000 0
vt 0.9425 0.5984 0
vt 0.9425 0.7000 0
vt 1.2566 0.5984 0
vt 1.2566 0.7000 0
vt 1.5708 0.5984 0
vt 1.5708 0.7000 0
vt 1.8850 0.5984 0
vt 1.8850 0.7000 0
vt 2.1991 0.5984 0
vt 2.1991 0.7000 0
vt 2.5133 0.5984 0
vt 2.5133 0.7000 0
vt 2.8274 0.5984 0
vt 2.8274 0.7000 0
vt 3.1416 0.5984 0
vt 3.1416 0.7000 0
vt -0.9418 -0.7000 0
vt -0.9418 -0.5984 0
vt -0.8765 -0.5984 0
vt -0.8765 -0.7000 0
vt -0.0058 -0.0450 0
vt -0.0158 -0.0450 0
vt -0.0164 -0.0386 0
vt -0.0164 -0.0514 0
vt 0.0000 -0.1100 0
vt -0.0210 -0.0634 0
vt -0.0773 -0.0086 0
vt -0.0664 -0.0137 0
vt -0.0767 -0.0214 0
vt -0.0080 -0.0311 0
vt -0.0210 -0.0266 0
vt -0.0508 -0.8039 0
vt -0.0412 -0.0787 0
vt -0.1016 -0.1100 0
vt -0.0561 -0.8070 0
vt -0.0569 -0.8100 0
vt -0.0872 -0.0185 0
vt -0.0647 -0.0022 0
vt -0.0508 0.0000 0
vt -0.0540 -0.0101 0
vt -0.0144 -0.0185 0
vt -0.0297 -0.0171 0
vt -0.0297 -0.0729 0
vt -0.0539 -0.8047 0
vt -0.0539 -0.9647 0
vt -0.0540 -0.0799 0
vt -0.0936 -0.0311 0
vt -0.0834 -0.0324 0
vt -0.0858 -0.0450 0
vt -0.0369 -0.0022 0
vt -0.0412 -0.0113 0
vt -0.0478 -0.8047 0
vt -0.0478 -0.8153 0
vt 0.0000 -0.9900 0
vt -0.0447 -0.9700 0
vt -0.0561 -0.9670 0
vt -0.0508 -0.9639 0
vt -0.0767 -0.0686 0
vt -0.0664 -0.0763 0
vt -0.0958 -0.0450 0
vt -0.0834 -0.0576 0
vt -0.0243 -0.0086 0
vt -0.0455 -0.9731 0
vt -0.1016 -0.9900 0
vt -0.0539 -0.9753 0
vt -0.0508 -0.9761 0
vt -0.0455 -0.9670 0
vt -0.0447 -0.8100 0
vt -0.0508 -0.8161 0
vt -0.0478 -0.9753 0
vt -0.0561 -0.9731 0
vt -0.0478 -0.9647 0
vt -0.0455 -0.8070 0
vt -0.0569 -0.9700 0
vt -0.0455 -0.8131 0
vt -0.0561 -0.8131 0
vt -0.0539 -0.8153 0
vt -0.0773 -0.0086 0
vt -0.0872 -0.0185 0
vt -0.0767 -0.0214 0
vt -0.0647 -0.0022 0
vt -0.0664 -0.0137 0
vt -0.0540 -0.0101 0
vt -0.0936 -0.0311 0
vt -0.0834 -0.0324 0
vt -0.0958 -0.0450 0
vt -0.0858 -0.0450 0
vt -0.1016 -0.1100 0
vt -0.0834 -0.0576 0
vt 0.0000 -0.1100 0
vt -0.0455 -0.8070 0
vt -0.0447 -0.8100 0
vt -0.0058 -0.0450 0
vt -0.0080 -0.0311 0
vt -0.0164 -0.0386 0
vt -0.0144 -0.0185 0
vt -0.0210 -0.0266 0
vt -0.0508 0.0000 0
vt -0.0412 -0.0113 0
vt -0.0767 -0.0686 0
vt -0.0508 -0.8039 0
vt -0.0540 -0.0799 0
vt -0.0478 -0.8047 0
vt -0.0478 -0.9647 0
vt -0.0412 -0.0787 0
vt -0.0164 -0.0514 0
vt -0.0243 -0.0086 0
vt -0.0297 -0.0171 0
vt -0.0664 -0.0763 0
vt -0.0539 -0.8153 0
vt -0.1016 -0.9900 0
vt -0.0569 -0.9700 0
vt -0.0455 -0.9670 0
vt -0.0508 -0.9639 0
vt -0.0210 -0.0634 0
vt -0.0297 -0.0729 0
vt -0.0158 -0.0450 0
vt -0.0369 -0.0022 0
vt -0.0539 -0.8047 0
vt -0.0561 -0.9731 0
vt 0.0000 -0.9900 0
vt -0.0508 -0.9761 0
vt -0.0561 -0.9670 0
vt -0.0569 -0.8100 0
vt -0.0508 -0.8161 0
vt -0.0539 -0.9753 0
vt -0.0455 -0.9731 0
vt -0.0478 -0.9753 0
vt -0.0539 -0.9647 0
vt -0.0561 -0.8070 0
vt -0.0447 -0.9700 0
vt -0.0561 -0.8131 0
vt -0.0455 -0.8131 0
vt -0.0478 -0.8153 0
vt -0.3696 0.7000 0
vt 0.0000 0.7000 0
vt 0.0000 0.5984 0
vt 5.5440 0.7000 0
vt -0.3696 0.5984 0
vt 5.1744 0.7000 0
vt 5.5440 0.5984 0
vt 4.8048 0.7000 0
vt 5.1744 0.5984 0
vt 4.4352 0.7000 0
vt 4.8048 0.5984 0
vt 4.0656 0.7000 0
vt 4.4352 0.5984 0
vt 3.6960 0.7000 0
vt 4.0656 0.5984 0
vt 3.3264 0.7000 0
vt 3.6960 0.5984 0
vt 2.9568 0.7000 0
vt 3.1416 0.7000 0
vt 3.1416 0.5984 0
vt 3.3264 0.5984 0
vt 2.5872 0.7000 0
vt 2.9568 0.5984 0
vt 2.2176 0.7000 0
vt 2.5872 0.5984 0
vt 1.8480 0.7000 0
vt 2.2176 0.5984 0
vt 1.4784 0.7000 0
vt 1.8480 0.5984 0
vt 1.1088 0.7000 0
vt 1.4784 0.5984 0
vt 0.7392 0.7000 0
vt 1.1088 0.5984 0
vt 0.3696 0.7000 0
vt 0.7392 0.5984 0
vt 0.3696 0.5984 0
f 173/173/173 175/175/175 176/176/176
f 175/175/175 173/173/173 174/174/174
f 167/167/167 165/165/165 166/166/166
f 170/170/170 172/172/172 171/171/171
f 169/169/169 166/166/166 168/168/168
f 166/166/166 169/169/169 167/167/167
f 169/169/169 170/170/170 171/171/171
f 170/170/170 169/169/169 168/168/168
f 172/172/172 170/170/170 165/165/165
f 165/165/165 167/167/167 172/172/172
f 179/179/179 177/177/177 178/178/178
f 177/177/177 179/179/179 180/180/180
f 246/246/246 224/224/224 235/235/235
f 245/245/245 243/243/243 244/244/244
f 222/222/222 215/215/215 242/242/242
f 220/220/220 221/221/221 231/231/231
f 241/241/241 229/229/229 240/240/240
f 228/228/228 230/230/230 218/218/218
f 238/238/238 227/227/227 219/219/219
f 239/239/239 237/237/237 238/238/238
f 224/224/224 236/236/236 234/234/234
f 224/224/224 226/226/226 235/235/235
f 225/225/225 224/224/224 234/234/234
f 215/215/215 223/223/223 233/233/233
f 211/211/211 213/213/213 220/220/220
f 232/232/232 231/231/231 221/221/221
f 230/230/230 228/228/228 229/229/229
f 217/217/217 219/219/219 227/227/227
f 226/226/226 224/224/224 225/225/225
f 215/215/215 222/222/222 223/223/223
f 215/215/215 214/214/214 211/211/211
f 221/221/221 220/220/220 213/213/213
f 219/219/219 217/217/217 218/218/218
f 214/214/214 215/215/215 216/216/216
f 212/212/212 211/211/211 214/214/214
f 235/235/235 226/226/226 247/247/247
f 255/255/255 254/254/254 261/261/261
f 224/224/224 246/246/246 254/254/254
f 226/226/226 257/257/257 262/262/262
f 226/226/226 262/262/262 247/247/247
f 224/224/224 251/251/251 248/248/248
f 240/240/240 232/232/232 241/241/241
f 215/215/215 258/258/258 263/263/263
f 244/244/244 260/260/260 253/253/253
f 261/261/261 254/254/254 264/264/264
f 237/237/237 239/239/239 250/250/250
f 258/258/258 244/244/244 265/265/265
f 254/254/254 256/256/256 244/244/244
f 236/236/236 222/222/222 234/234/234
f 244/244/244 243/243/243 265/265/265
f 266/266/266 245/245/245 226/226/226
f 215/215/215 263/263/263 242/242/242
f 245/245/245 266/266/266 267/267/267
f 245/245/245 267/267/267 259/259/259
f 254/254/254 246/246/246 264/264/264
f 249/249/249 224/224/224 248/248/248
f 243/243/243 245/245/245 259/259/259
f 258/258/258 215/215/215 244/244/244
f 231/231/231 232/232/232 252/252/252
f 218/218/218 217/217/217 228/228/228
f 213/213/213 211/211/211 212/212/212
f 222/222/222 236/236/236 223/223/223
f 250/250/250 251/251/251 224/224/224
f 236/236/236 224/224/224 249/249/249
f 257/257/257 226/226/226 245/245/245
f 256/256/256 254/254/254 255/255/255
f 245/245/245 244/244/244 253/253/253
f 215/215/215 233/233/233 216/216/216
f 232/232/232 240/240/240 252/252/252
f 229/229/229 241/241/241 230/230/230
f 227/227/227 238/238/238 237/237/237
f 251/251/251 250/250/250 239/239/239
f 260/260/260 244/244/244 256/256/256
f 277/277/277 274/274/274 276/276/276
f 275/275/275 269/269/269 274/274/274
f 268/268/268 272/272/272 271/271/271
f 273/273/273 271/271/271 272/272/272
f 270/270/270 268/268/268 269/269/269
f 282/282/282 280/280/280 281/281/281
f 285/285/285 283/283/283 284/284/284
f 287/287/287 284/284/284 286/286/286
f 289/289/289 288/288/288 273/273/273
f 280/280/280 282/282/282 294/294/294
f 274/274/274 277/277/277 275/275/275
f 279/279/279 278/278/278 290/290/290
f 278/278/278 291/291/291 292/292/292
f 278/278/278 314/314/314 320/320/320
f 301/301/301 316/316/316 310/310/310
f 317/317/317 311/311/311 321/321/321
f 283/283/283 285/285/285 307/307/307
f 314/314/314 301/301/301 322/322/322
f 311/311/311 318/318/318 312/312/312
f 295/295/295 291/291/291 293/293/293
f 301/301/301 300/300/300 322/322/322
f 323/323/323 302/302/302 282/282/282
f 278/278/278 320/320/320 309/309/309
f 302/302/302 323/323/323 324/324/324
f 302/302/302 324/324/324 315/315/315
f 311/311/311 303/303/303 321/321/321
f 280/280/280 295/295/295 293/293/293
f 296/296/296 280/280/280 283/283/283
f 284/284/284 287/287/287 285/285/285
f 298/298/298 286/286/286 297/297/297
f 271/271/271 273/273/273 288/288/288
f 276/276/276 279/279/279 277/277/277
f 278/278/278 292/292/292 299/299/299
f 302/302/302 300/300/300 301/301/301
f 279/279/279 276/276/276 278/278/278
f 281/281/281 280/280/280 293/293/293
f 288/288/288 289/289/289 308/308/308
f 295/295/295 280/280/280 306/306/306
f 282/282/282 319/319/319 304/304/304
f 303/303/303 280/280/280 294/294/294
f 282/282/282 313/313/313 319/319/319
f 280/280/280 303/303/303 311/311/311
f 318/318/318 311/311/311 317/317/317
f 301/301/301 312/312/312 316/316/316
f 300/300/300 302/302/302 315/315/315
f 314/314/314 278/278/278 301/301/301
f 278/278/278 299/299/299 290/290/290
f 308/308/308 298/298/298 297/297/297
f 280/280/280 296/296/296 305/305/305
f 291/291/291 295/295/295 292/292/292
f 313/313/313 282/282/282 302/302/302
f 312/312/312 301/301/301 311/311/311
f 302/302/302 301/301/301 310/310/310
f 291/291/291 278/278/278 309/309/309
f 269/269/269 275/275/275 270/270/270
f 298/298/298 308/308/308 289/289/289
f 286/286/286 298/298/298 287/287/287
f 296/296/296 283/283/283 307/307/307
f 306/306/306 280/280/280 305/305/305
f 294/294/294 282/282/282 304/304/304
f 268/268/268 270/270/270 272/272/272
f 77/77/77 79/79/79 80/80/80
f 79/79/79 77/77/77 78/78/78
f 90/90/90 89/89/89 115/115/115
f 104/104/104 107/107/107 105/105/105
f 97/97/97 116/116/116 111/111/111
f 97/97/97 112/112/112 116/116/116
f 103/103/103 95/95/95 110/110/110
f 93/93/93 102/102/102 94/94/94
f 103/103/103 93/93/93 113/113/113
f 99/99/99 90/90/90 115/115/115
f 107/107/107 98/98/98 114/114/114
f 104/104/104 113/113/113 93/93/93
f 104/104/104 106/106/106 113/113/113
f 112/112/112 97/97/97 91/91/91
f 95/95/95 97/97/97 111/111/111
f 98/98/98 108/108/108 114/114/114
f 101/101/101 93/93/93 109/109/109
f 90/90/90 100/100/100 92/92/92
f 98/98/98 99/99/99 108/108/108
f 107/107/107 104/104/104 98/98/98
f 106/106/106 104/104/104 105/105/105
f 96/96/96 95/95/95 103/103/103
f 102/102/102 93/93/93 101/101/101
f 90/90/90 94/94/94 100/100/100
f 89/89/89 91/91/91 97/97/97
f 99/99/99 98/98/98 90/90/90
f 97/97/97 95/95/95 96/96/96
f 94/94/94 90/90/90 93/93/93
f 91/91/91 90/90/90 92/92/92
f 91/91/91 89/89/89 90/90/90
f 110/110/110 93/93/93 103/103/103
f 93/93/93 110/110/110 109/109/109
f 83/83/83 81/81/81 82/82/82
f 81/81/81 83/83/83 84/84/84
f 27/27/27 25/25/25 26/26/26
f 27/27/27 26/26/26 28/28/28
f 29/29/29 46/46/46 45/45/45
f 39/39/39 29/29/29 49/49/49
f 35/35/35 44/44/44 50/50/50
f 26/26/26 25/25/25 51/51/51
f 40/40/40 43/43/43 41/41/41
f 34/34/34 52/52/52 47/47/47
f 34/34/34 48/48/48 52/52/52
f 39/39/39 32/32/32 46/46/46
f 29/29/29 31/31/31 26/26/26
f 31/31/31 29/29/29 30/30/30
f 43/43/43 35/35/35 50/50/50
f 40/40/40 49/49/49 29/29/29
f 40/40/40 42/42/42 49/49/49
f 48/48/48 34/34/34 27/27/27
f 32/32/32 34/34/34 47/47/47
f 46/46/46 29/29/29 39/39/39
f 38/38/38 29/29/29 45/45/45
f 26/26/26 37/37/37 28/28/28
f 35/35/35 36/36/36 44/44/44
f 43/43/43 40/40/40 35/35/35
f 42/42/42 40/40/40 41/41/41
f 33/33/33 32/32/32 39/39/39
f 30/30/30 29/29/29 38/38/38
f 37/37/37 26/26/26 31/31/31
f 25/25/25 27/27/27 34/34/34
f 36/36/36 35/35/35 26/26/26
f 34/34/34 32/32/32 33/33/33
f 36/36/36 26/26/26 51/51/51
f 87/87/87 85/85/85 86/86/86
f 85/85/85 87/87/87 88/88/88
f 1/1/1 3/3/3 5/5/5
f 4/4/4 5/5/5 7/7/7
f 6/6/6 7/7/7 9/9/9
f 8/8/8 9/9/9 11/11/11
f 10/10/10 11/11/11 13/13/13
f 12/12/12 13/13/13 15/15/15
f 14/14/14 15/15/15 17/17/17
f 16/16/16 17/17/17 19/19/19
f 18/18/18 19/19/19 21/21/21
f 20/20/20 21/21/21 23/23/23
f 22/22/22 23/23/23 24/24/24
f 2/2/2 24/24/24 3/3/3
f 24/24/24 2/2/2 22/22/22
f 23/23/23 22/22/22 20/20/20
f 21/21/21 20/20/20 18/18/18
f 19/19/19 18/18/18 16/16/16
f 17/17/17 16/16/16 14/14/14
f 15/15/15 14/14/14 12/12/12
f 13/13/13 12/12/12 10/10/10
f 11/11/11 10/10/10 8/8/8
f 9/9/9 8/8/8 6/6/6
f 7/7/7 6/6/6 4/4/4
f 5/5/5 4/4/4 1/1/1
f 3/3/3 1/1/1 2/2/2
f 117/117/117 119/119/119 121/121/121
f 122/122/122 123/123/123 125/125/125
f 124/124/124 125/125/125 127/127/127
f 126/126/126 127/127/127 129/129/129
f 128/128/128 129/129/129 131/131/131
f 130/130/130 131/131/131 133/133/133
f 132/132/132 133/133/133 135/135/135
f 134/134/134 135/135/135 137/137/137
f 136/136/136 137/137/137 139/139/139
f 138/138/138 139/139/139 140/140/140
f 118/118/118 140/140/140 119/119/119
f 140/140/140 118/118/118 138/138/138
f 139/139/139 138/138/138 136/136/136
f 137/137/137 136/136/136 134/134/134
f 135/135/135 134/134/134 132/132/132
f 133/133/133 132/132/132 130/130/130
f 131/131/131 130/130/130 128/128/128
f 129/129/129 128/128/128 126/126/126
f 127/127/127 126/126/126 124/124/124
f 125/125/125 124/124/124 122/122/122
f 123/123/123 122/122/122 120/120/120
f 121/121/121 120/120/120 117/117/117
f 119/119/119 117/117/117 118/118/118
f 120/120/120 121/121/121 123/123/123
f 55/55/55 53/53/53 54/54/54
f 59/59/59 58/58/58 56/56/56
f 61/61/61 60/60/60 58/58/58
f 63/63/63 62/62/62 60/60/60
f 65/65/65 64/64/64 62/62/62
f 67/67/67 66/66/66 64/64/64
f 69/69/69 68/68/68 66/66/66
f 71/71/71 70/70/70 68/68/68
f 73/73/73 72/72/72 70/70/70
f 75/75/75 74/74/74 72/72/72
f 76/76/76 54/54/54 74/74/74
f 54/54/54 76/76/76 55/55/55
f 74/74/74 75/75/75 76/76/76
f 72/72/72 73/73/73 75/75/75
f 70/70/70 71/71/71 73/73/73
f 68/68/68 69/69/69 71/71/71
f 66/66/66 67/67/67 69/69/69
f 64/64/64 65/65/65 67/67/67
f 62/62/62 63/63/63 65/65/65
f 60/60/60 61/61/61 63/63/63
f 58/58/58 59/59/59 61/61/61
f 56/56/56 57/57/57 59/59/59
f 53/53/53 55/55/55 57/57/57
f 57/57/57 56/56/56 53/53/53
f 144/144/144 145/145/145 147/147/147
f 146/146/146 147/147/147 149/149/149
f 148/148/148 149/149/149 151/151/151
f 150/150/150 151/151/151 153/153/153
f 152/152/152 153/153/153 155/155/155
f 154/154/154 155/155/155 157/157/157
f 156/156/156 157/157/157 159/159/159
f 158/158/158 159/159/159 161/161/161
f 160/160/160 161/161/161 163/163/163
f 162/162/162 163/163/163 164/164/164
f 142/142/142 164/164/164 143/143/143
f 164/164/164 142/142/142 162/162/162
f 141/141/141 143/143/143 145/145/145
f 161/161/161 160/160/160 158/158/158
f 159/159/159 158/158/158 156/156/156
f 157/157/157 156/156/156 154/154/154
f 155/155/155 154/154/154 152/152/152
f 153/153/153 152/152/152 150/150/150
f 151/151/151 150/150/150 148/148/148
f 149/149/149 148/148/148 146/146/146
f 147/147/147 146/146/146 144/144/144
f 145/145/145 144/144/144 141/141/141
f 143/143/143 141/141/141 142/142/142
f 163/163/163 162/162/162 160/160/160
f 350/350/350 351/351/351 353/353/353
f 348/348/348 349/349/349 351/351/351
f 346/346/346 347/347/347 349/349/349
f 342/342/342 344/344/344 347/347/347
f 340/340/340 341/341/341 345/345/345
f 352/352/352 353/353/353 355/355/355
f 336/336/336 337/337/337 339/339/339
f 334/334/334 335/335/335 337/337/337
f 332/332/332 333/333/333 335/335/335
f 330/330/330 331/331/331 333/333/333
f 328/328/328 329/329/329 331/331/331
f 354/354/354 355/355/355 357/357/357
f 356/356/356 357/357/357 359/359/359
f 358/358/358 359/359/359 360/360/360
f 326/326/326 360/360/360 327/327/327
f 360/360/360 326/326/326 358/358/358
f 359/359/359 358/358/358 356/356/356
f 357/357/357 356/356/356 354/354/354
f 355/355/355 354/354/354 352/352/352
f 353/353/353 352/352/352 350/350/350
f 351/351/351 350/350/350 348/348/348
f 349/349/349 348/348/348 346/346/346
f 347/347/347 346/346/346 342/342/342
f 345/345/345 343/343/343 340/340/340
f 343/343/343 345/345/345 344/344/344
f 344/344/344 342/342/342 343/343/343
f 341/341/341 340/340/340 338/338/338
f 337/337/337 336/336/336 334/334/334
f 335/335/335 334/334/334 332/332/332
f 333/333/333 332/332/332 330/330/330
f 331/331/331 330/330/330 328/328/328
f 329/329/329 328/328/328 325/325/325
f 327/327/327 325/325/325 326/326/326
f 338/338/338 339/339/339 341/341/341
f 325/325/325 327/327/327 329/329/329
f 339/339/339 338/338/338 336/336/336
f 191/191/191 190/190/190 189/189/189
f 187/187/187 185/185/185 186/186/186
f 185/185/185 187/187/187 188/188/188
f 188/188/188 189/189/189 190/190/190
f 190/190/190 191/191/191 192/192/192
f 192/192/192 193/193/193 194/194/194
f 194/194/194 195/195/195 196/196/196
f 196/196/196 197/197/197 198/198/198
f 198/198/198 199/199/199 200/200/200
f 200/200/200 201/201/201 202/202/202
f 202/202/202 203/203/203 204/204/204
f 204/204/204 205/205/205 206/206/206
f 205/205/205 204/204/204 203/203/203
f 203/203/203 202/202/202 201/201/201
f 201/201/201 200/200/200 199/199/199
f 199/199/199 198/198/198 197/197/197
f 197/197/197 196/196/196 195/195/195
f 195/195/195 194/194/194 193/193/193
f 193/193/193 192/192/192 191/191/191
f 189/189/189 188/188/188 187/187/187
f 181/181/181 183/183/183 184/184/184
f 183/183/183 181/181/181 182/182/182
f 209/209/209 207/207/207 208/208/208
f 207/207/207 209/209/209 210/210/210
